<?xml version="1.0" encoding="UTF-8" standalone="no"?>
<!DOCTYPE svg PUBLIC "-//W3C//DTD SVG 1.1//EN"
 "http://www.w3.org/Graphics/SVG/1.1/DTD/svg11.dtd">
<!-- Generated by graphviz version 2.43.0 (0)
 -->
<!-- Title: domain Pages: 1 -->
<svg width="2134pt" height="561pt"
 viewBox="0.00 0.00 2134.00 561.00" xmlns="http://www.w3.org/2000/svg" xmlns:xlink="http://www.w3.org/1999/xlink">
<g id="graph0" class="graph" transform="scale(1 1) rotate(0) translate(4 557)">
<title>domain</title>
<polygon fill="white" stroke="transparent" points="-4,4 -4,-557 2130,-557 2130,4 -4,4"/>
<g id="clust1" class="cluster">
<title>cluster_0</title>
<polygon fill="none" stroke="black" points="8,-8 8,-545 2118,-545 2118,-8 8,-8"/>
<text text-anchor="middle" x="1063" y="-529.8" font-family="Times,serif" font-size="14.00">projeto</text>
</g>
<!-- Alimento -->
<g id="node1" class="node">
<title>Alimento</title>
<polygon fill="none" stroke="black" points="637,-114.5 637,-325.5 1051,-325.5 1051,-114.5 637,-114.5"/>
<text text-anchor="middle" x="844" y="-310.3" font-family="Times,serif" font-size="14.00">Alimento</text>
<polyline fill="none" stroke="black" points="637,-302.5 1051,-302.5 "/>
<text text-anchor="start" x="645" y="-287.3" font-family="Times,serif" font-size="14.00">+ alterarAtributosEspecificos(Scanner)</text>
<text text-anchor="start" x="645" y="-272.3" font-family="Times,serif" font-size="14.00">+ calcularImposto() : double</text>
<text text-anchor="start" x="645" y="-257.3" font-family="Times,serif" font-size="14.00">+ getCodigo() : String</text>
<text text-anchor="start" x="645" y="-242.3" font-family="Times,serif" font-size="14.00">+ getNomeDoAlimento() : String</text>
<text text-anchor="start" x="645" y="-227.3" font-family="Times,serif" font-size="14.00">+ getPreco() : double</text>
<text text-anchor="start" x="645" y="-212.3" font-family="Times,serif" font-size="14.00">+ getQuantidadeDoProduto() : int</text>
<text text-anchor="start" x="645" y="-197.3" font-family="Times,serif" font-size="14.00">+ getTipo() : String</text>
<text text-anchor="start" x="645" y="-182.3" font-family="Times,serif" font-size="14.00">+ setCodigo(codigo : String)</text>
<text text-anchor="start" x="645" y="-167.3" font-family="Times,serif" font-size="14.00">+ setNomeDoAlimento(nomeDoAlimento : String)</text>
<text text-anchor="start" x="645" y="-152.3" font-family="Times,serif" font-size="14.00">+ setPreco(preco : double)</text>
<text text-anchor="start" x="645" y="-137.3" font-family="Times,serif" font-size="14.00">+ setQuantidadeDoProduto(quantidadeDoProduto : int)</text>
<text text-anchor="start" x="645" y="-122.3" font-family="Times,serif" font-size="14.00">+ toString() : String</text>
</g>
<!-- TipoDeAlimento -->
<g id="node8" class="node">
<title>TipoDeAlimento</title>
<polygon fill="none" stroke="black" points="734.5,-16.5 734.5,-77.5 953.5,-77.5 953.5,-16.5 734.5,-16.5"/>
<text text-anchor="middle" x="844" y="-62.3" font-family="Times,serif" font-size="14.00">TipoDeAlimento</text>
<polyline fill="none" stroke="black" points="734.5,-54.5 953.5,-54.5 "/>
<text text-anchor="start" x="742.5" y="-39.3" font-family="Times,serif" font-size="14.00">+ calcularImposto() : double</text>
<text text-anchor="start" x="742.5" y="-24.3" font-family="Times,serif" font-size="14.00">+ getTipo() : String</text>
</g>
<!-- Alimento&#45;&gt;TipoDeAlimento -->
<g id="edge2" class="edge">
<title>Alimento&#45;&gt;TipoDeAlimento</title>
<path fill="none" stroke="slategray" d="M844,-114.11C844,-104.88 844,-95.97 844,-87.84"/>
<polygon fill="none" stroke="slategray" points="847.5,-87.64 844,-77.64 840.5,-87.64 847.5,-87.64"/>
</g>
<!-- Bebida -->
<g id="node2" class="node">
<title>Bebida</title>
<polygon fill="none" stroke="black" points="1742.5,-377.5 1742.5,-498.5 2109.5,-498.5 2109.5,-377.5 1742.5,-377.5"/>
<text text-anchor="middle" x="1926" y="-483.3" font-family="Times,serif" font-size="14.00">Bebida</text>
<polyline fill="none" stroke="black" points="1742.5,-475.5 2109.5,-475.5 "/>
<text text-anchor="start" x="1750.5" y="-460.3" font-family="Times,serif" font-size="14.00">+ alterarAtributosEspecificos(scanner : Scanner)</text>
<text text-anchor="start" x="1750.5" y="-445.3" font-family="Times,serif" font-size="14.00">+ calcularImposto() : double</text>
<text text-anchor="start" x="1750.5" y="-430.3" font-family="Times,serif" font-size="14.00">+ getTeorAlcoolico() : double</text>
<text text-anchor="start" x="1750.5" y="-415.3" font-family="Times,serif" font-size="14.00">+ getTipo() : String</text>
<text text-anchor="start" x="1750.5" y="-400.3" font-family="Times,serif" font-size="14.00">+ setTeorAlcoolico(teorAlcoolico : double)</text>
<text text-anchor="start" x="1750.5" y="-385.3" font-family="Times,serif" font-size="14.00">+ toString() : String</text>
</g>
<!-- Bebida&#45;&gt;Alimento -->
<g id="edge3" class="edge">
<title>Bebida&#45;&gt;Alimento</title>
<path fill="none" stroke="slategray" d="M1782.74,-377.47C1766.14,-371.73 1749.31,-366.41 1733,-362 1507.84,-301.15 1243.04,-263.32 1061.36,-242.36"/>
<polygon fill="none" stroke="slategray" points="1061.75,-238.88 1051.42,-241.22 1060.95,-245.84 1061.75,-238.88"/>
</g>
<!-- ConsoleUI -->
<g id="node3" class="node">
<title>ConsoleUI</title>
<polygon fill="none" stroke="black" points="1634,-415 1634,-461 1724,-461 1724,-415 1634,-415"/>
<text text-anchor="middle" x="1679" y="-445.8" font-family="Times,serif" font-size="14.00">ConsoleUI</text>
<polyline fill="none" stroke="black" points="1634,-438 1724,-438 "/>
<text text-anchor="start" x="1642" y="-422.8" font-family="Times,serif" font-size="14.00">+ iniciar()</text>
</g>
<!-- Principal -->
<g id="node4" class="node">
<title>Principal</title>
<polygon fill="none" stroke="black" points="1436.5,-415 1436.5,-461 1615.5,-461 1615.5,-415 1436.5,-415"/>
<text text-anchor="middle" x="1526" y="-445.8" font-family="Times,serif" font-size="14.00">Principal</text>
<polyline fill="none" stroke="black" points="1436.5,-438 1615.5,-438 "/>
<text text-anchor="start" x="1444.5" y="-422.8" font-family="Times,serif" font-size="14.00">+ main(args : String[])</text>
</g>
<!-- Restaurante -->
<g id="node5" class="node">
<title>Restaurante</title>
<polygon fill="none" stroke="black" points="787,-385 787,-491 1419,-491 1419,-385 787,-385"/>
<text text-anchor="middle" x="1103" y="-475.8" font-family="Times,serif" font-size="14.00">Restaurante</text>
<polyline fill="none" stroke="black" points="787,-468 1419,-468 "/>
<text text-anchor="start" x="795" y="-452.8" font-family="Times,serif" font-size="14.00">+ adicionarAlimento(novoAlimento : Alimento)</text>
<text text-anchor="start" x="795" y="-437.8" font-family="Times,serif" font-size="14.00">+ alterarDadosAlimento(nomeDoAlimento : String, codigo : String, scanner : Scanner)</text>
<text text-anchor="start" x="795" y="-422.8" font-family="Times,serif" font-size="14.00">+ consultarAlimento(nomeDoAlimento : String, codigo : String) : Alimento</text>
<text text-anchor="start" x="795" y="-407.8" font-family="Times,serif" font-size="14.00">+ excluirAlimento(nomeDoAlimento : String, codigo : String)</text>
<text text-anchor="start" x="795" y="-392.8" font-family="Times,serif" font-size="14.00">+ listarAlimentos()</text>
</g>
<!-- Restaurante&#45;&gt;Alimento -->
<g id="edge1" class="edge">
<title>Restaurante&#45;&gt;Alimento</title>
<path fill="none" stroke="slategray" d="M1031.35,-377.24C1012.06,-361.16 990.61,-343.27 969.32,-325.51"/>
<polygon fill="none" stroke="slategray" points="1031.42,-377.3 1038.59,-378.07 1040.63,-384.99 1033.46,-384.22 1031.42,-377.3"/>
</g>
<!-- Sobremesa -->
<g id="node6" class="node">
<title>Sobremesa</title>
<polygon fill="none" stroke="black" points="401.5,-377.5 401.5,-498.5 768.5,-498.5 768.5,-377.5 401.5,-377.5"/>
<text text-anchor="middle" x="585" y="-483.3" font-family="Times,serif" font-size="14.00">Sobremesa</text>
<polyline fill="none" stroke="black" points="401.5,-475.5 768.5,-475.5 "/>
<text text-anchor="start" x="409.5" y="-460.3" font-family="Times,serif" font-size="14.00">+ alterarAtributosEspecificos(scanner : Scanner)</text>
<text text-anchor="start" x="409.5" y="-445.3" font-family="Times,serif" font-size="14.00">+ calcularImposto() : double</text>
<text text-anchor="start" x="409.5" y="-430.3" font-family="Times,serif" font-size="14.00">+ getTeorDeAcucar() : double</text>
<text text-anchor="start" x="409.5" y="-415.3" font-family="Times,serif" font-size="14.00">+ getTipo() : String</text>
<text text-anchor="start" x="409.5" y="-400.3" font-family="Times,serif" font-size="14.00">+ setTeorDeAcucar(teorDeAcucar : double)</text>
<text text-anchor="start" x="409.5" y="-385.3" font-family="Times,serif" font-size="14.00">+ toString() : String</text>
</g>
<!-- Sobremesa&#45;&gt;Alimento -->
<g id="edge4" class="edge">
<title>Sobremesa&#45;&gt;Alimento</title>
<path fill="none" stroke="slategray" d="M656.46,-377.41C673.43,-363.25 692.09,-347.69 710.85,-332.05"/>
<polygon fill="none" stroke="slategray" points="713.16,-334.67 718.6,-325.58 708.68,-329.3 713.16,-334.67"/>
</g>
<!-- Solido -->
<g id="node7" class="node">
<title>Solido</title>
<polygon fill="none" stroke="black" points="16.5,-362.5 16.5,-513.5 383.5,-513.5 383.5,-362.5 16.5,-362.5"/>
<text text-anchor="middle" x="200" y="-498.3" font-family="Times,serif" font-size="14.00">Solido</text>
<polyline fill="none" stroke="black" points="16.5,-490.5 383.5,-490.5 "/>
<text text-anchor="start" x="24.5" y="-475.3" font-family="Times,serif" font-size="14.00">+ alterarAtributosEspecificos(scanner : Scanner)</text>
<text text-anchor="start" x="24.5" y="-460.3" font-family="Times,serif" font-size="14.00">+ calcularImposto() : double</text>
<text text-anchor="start" x="24.5" y="-445.3" font-family="Times,serif" font-size="14.00">+ getPorcao() : double</text>
<text text-anchor="start" x="24.5" y="-430.3" font-family="Times,serif" font-size="14.00">+ getTemperatura() : double</text>
<text text-anchor="start" x="24.5" y="-415.3" font-family="Times,serif" font-size="14.00">+ getTipo() : String</text>
<text text-anchor="start" x="24.5" y="-400.3" font-family="Times,serif" font-size="14.00">+ setPorcao(porcao : double)</text>
<text text-anchor="start" x="24.5" y="-385.3" font-family="Times,serif" font-size="14.00">+ setTemperatura(temperatura : double)</text>
<text text-anchor="start" x="24.5" y="-370.3" font-family="Times,serif" font-size="14.00">+ toString() : String</text>
</g>
<!-- Solido&#45;&gt;Alimento -->
<g id="edge5" class="edge">
<title>Solido&#45;&gt;Alimento</title>
<path fill="none" stroke="slategray" d="M383.52,-365.35C386.7,-364.22 389.86,-363.1 393,-362 468.67,-335.5 552.3,-308.68 626.78,-285.65"/>
<polygon fill="none" stroke="slategray" points="628.23,-288.87 636.76,-282.58 626.17,-282.18 628.23,-288.87"/>
</g>
</g>
</svg>
